# xmcd
#
# Track frame offsets:
#	150
#	12987
#	25905
#	39897
#	53437
#	66687
#	80482
#	92377
#	104707
#	116292
#	128750
#	139895
#	153187
#	165267
#	178485
#	188955
#
# Disc length: 2661 seconds
# Revision: 1
# Processed by: cddbd v1.5.2PL0 Copyright (c) Steve Scherf et al.
# Submitted via: dBpowerAMP V12.0
#
DISCID=cd0a6310
DTITLE=Sons of the Pioneers - Country Music Hall of Fame
DYEAR=1991
DGENRE=Country
TTITLE0=Way Out There
TTITLE1=Tumbling Tumbleweeds
TTITLE2=There's a Round Up in the Sky
TTITLE3=When Our Old Age Pension Check Comes to Our Door
TTITLE4=Echoes from the Hills
TTITLE5=The Hills of Old Wyoming
TTITLE6=Ride, Ranger, Ride
TTITLE7=One More Ride
TTITLE8=Rye Whiskey
TTITLE9=Cool Water
TTITLE10=When the Moon Comes over Sun Valley
TTITLE11=Private Buckaroo
TTITLE12=I Hang My Head and Cry
TTITLE13=Let Me Keep My Memories
TTITLE14=Sierra Nevada
TTITLE15=Somebody Bigger Than You and I
EXTD=
EXTT0=
EXTT1=
EXTT2=
EXTT3=
EXTT4=
EXTT5=
EXTT6=
EXTT7=
EXTT8=
EXTT9=
EXTT10=
EXTT11=
EXTT12=
EXTT13=
EXTT14=
EXTT15=
PLAYORDER=
